# xmcd
#
# Track frame offsets:
#	183
#	8883
#	19275
#	30358
#	40478
#	51008
#	61923
#	71708
#	84530
#	92433
#	102940
#	116008
#	128608
#	138883
#	147508
#	158108
#	168983
#	180733
#
# Disc length: 2530 seconds
#
# Revision: 1
# Processed by: cddbd v1.5.1PL2 Copyright (c) Steve Scherf et al.
# Submitted via: EasyCDDAExtractor 6.0.0.1
#
DISCID=ec09e012
DTITLE=Johnny Cash - Country Music CM001
DYEAR=1999
DGENRE=Country
TTITLE0=The Wreck Of The Old '97
TTITLE1=Ballad Of A Teenage Queen # 1 ('58)
TTITLE2=I Hear That Lonesome Whistle
TTITLE3=Rock Island Line # 35 ('70)
TTITLE4=Goodbye Little Darlin'
TTITLE5=Train Of Love # 7 ('56)
TTITLE6=Down The Street To 301
TTITLE7=Give My Love To Rose # 13 ('57)
TTITLE8=Come In Stranger # 6 ('58)
TTITLE9=Get Rhythm # 1 ('56)
TTITLE10=Folson Prison Blues # 4 ('56)
TTITLE11=I Walk The Line # 1 ('56)
TTITLE12=Hey Porter
TTITLE13=Guess Things Can Happen That Way #1 ('58)
TTITLE14=The Ways Of A Woman In Love # 2 ('58)
TTITLE15=There You Go # 1 ('56)
TTITLE16=Big River # 4 ('58)
TTITLE17=Blue Train
EXTD=
EXTT0=
EXTT1=
EXTT2=
EXTT3=
EXTT4=
EXTT5=
EXTT6=
EXTT7=
EXTT8=
EXTT9=
EXTT10=
EXTT11=
EXTT12=
EXTT13=
EXTT14=
EXTT15=
EXTT16=
EXTT17=
PLAYORDER=
